<svg xmlns="http://www.w3.org/2000/svg" viewBox="0 0 640 420" role="img" aria-labelledby="title desc">
    <title id="title">Skincare product placeholder</title>
    <desc id="desc">A clean cosmetic bottle and jar illustration on a soft gradient background.</desc>
    <defs>
        <linearGradient id="bg" x1="0" x2="1" y1="0" y2="1">
            <stop offset="0" stop-color="#effaf4"/>
            <stop offset="0.52" stop-color="#ffffff"/>
            <stop offset="1" stop-color="#fff1ed"/>
        </linearGradient>
        <linearGradient id="bottle" x1="0" x2="1" y1="0" y2="1">
            <stop offset="0" stop-color="#166f6b"/>
            <stop offset="1" stop-color="#6ed7b7"/>
        </linearGradient>
    </defs>
    <rect width="640" height="420" rx="36" fill="url(#bg)"/>
    <circle cx="160" cy="120" r="70" fill="#6ed7b7" opacity="0.2"/>
    <circle cx="500" cy="310" r="90" fill="#f58f7c" opacity="0.18"/>
    <rect x="250" y="96" width="126" height="230" rx="28" fill="url(#bottle)"/>
    <rect x="276" y="62" width="74" height="46" rx="12" fill="#10241d"/>
    <rect x="274" y="162" width="78" height="74" rx="16" fill="#ffffff" opacity="0.88"/>
    <path d="M302 185c13 11 21 23 21 35a21 21 0 0 1-42 0c0-12 8-24 21-35Z" fill="#166f6b" opacity="0.82"/>
    <rect x="378" y="222" width="112" height="104" rx="30" fill="#ffffff"/>
    <rect x="392" y="190" width="84" height="48" rx="20" fill="#10241d"/>
    <rect x="402" y="254" width="64" height="20" rx="10" fill="#6ed7b7" opacity="0.5"/>
</svg>
